# Rhino

mtllib platform1.mtl
usemtl diffuse_Black
v -0.3986935019493103 1.2000006437301636 0.3675178587436676
v -0.58369320631027222 1.2000006437301636 0.44960176944732666
v -0.70935600996017456 1.2000006437301636 0.60825711488723755
v -0.74689412117004395 1.2000006437301636 0.80713790655136108
v -0.68770796060562134 1.2000006437301636 1.0006828308105469
v -0.54535633325576782 1.2000006437301636 1.1445533037185669
v -0.35245037078857422 1.2000006437301636 1.2057900428771973
v -0.15318246185779572 1.2000006437301636 1.1703647375106812
v 0.0067975441925227642 1.2000006437301636 1.0463926792144775
v 0.09084012359380722 1.2000006437301636 0.86227446794509888
v 0.079692140221595764 1.2000006437301636 0.66018939018249512
v -0.024092532694339752 1.2000006437301636 0.48643264174461365
v -0.19673807919025421 1.2000006437301636 0.38080984354019165
vt 0.41564568877220154 1
vt 0.19481226801872253 0.90207964181900024
vt 0.044809065759181976 0.71281492710113525
vt 0 0.47556412220001221
vt 0.070650294423103333 0.24467852711677551
vt 0.24057482182979584 0.073051236569881439
vt 0.47084590792655945 0
vt 0.70871120691299438 0.042259979993104935
vt 0.89967870712280273 0.19014991819858551
vt 1 0.4097900390625
vt 0.98669272661209106 0.6508634090423584
vt 0.86280536651611328 0.85814303159713745
vt 0.65671902894973755 0.98414361476898193
vn 0 1 0
vn 0 1 0
vn 0 1 0
vn 0 1 0
vn 0 1 0
vn 0 1 0
vn 0 1 0
vn 0 1 0
vn 0 1 0
vn 0 1 0
vn 0 1 0
vn 0 1 0
vn 0 1 0
f 3/3/3 4/4/4 5/5/5 6/6/6 7/7/7 8/8/8 9/9/9 10/10/10 11/11/11 12/12/12 13/13/13 1/1/1 2/2/2
